<svg width="22" height="28" viewBox="0 0 22 28" fill="none" xmlns="http://www.w3.org/2000/svg">
<path d="M17.1866 27.3333H4.8133C3.46553 27.2843 2.21005 26.636 1.38976 25.5655C0.569464 24.495 0.270051 23.1141 0.573296 21.8L0.893296 20.28C1.26134 18.2224 3.03013 16.7103 5.11996 16.6667H16.88C18.9698 16.7103 20.7386 18.2224 21.1066 20.28L21.4266 21.8C21.7299 23.1141 21.4305 24.495 20.6102 25.5655C19.7899 26.636 18.5344 27.2843 17.1866 27.3333Z" fill="#8D1111"/>
<path d="M11.6666 14H10.3333C7.38778 14 4.99996 11.6122 4.99996 8.66668V5.14668C4.99641 3.95742 5.46726 2.81585 6.3082 1.97491C7.14913 1.13398 8.29071 0.663121 9.47996 0.666676H12.52C13.7092 0.663121 14.8508 1.13398 15.6917 1.97491C16.5327 2.81585 17.0035 3.95742 17 5.14668V8.66668C17 10.0812 16.4381 11.4377 15.4379 12.4379C14.4377 13.4381 13.0811 14 11.6666 14Z" fill="#8D1111"/>
</svg>
