<svg width="20" height="20" viewBox="0 0 20 20" fill="none" xmlns="http://www.w3.org/2000/svg">
<path d="M0.780809 6.4693L6.47795 0.768866C7.52048 -0.256289 9.19178 -0.256289 10.2343 0.768866L13.7778 4.2643C13.9793 4.46684 14.2118 4.636 14.4665 4.76543L18.3105 6.69481C19.0828 7.07902 19.6231 7.81178 19.7621 8.66357C19.9011 9.51535 19.6218 10.382 19.0117 10.9921L15.6685 14.3372L19.7254 18.3964C20.0915 18.7632 20.0915 19.3575 19.7254 19.7244C19.5465 19.8962 19.3097 19.9946 19.0617 20C18.8128 19.9998 18.5741 19.9006 18.3981 19.7244L14.3413 15.6652L10.9981 19.0103C10.3884 19.6208 9.52224 19.9002 8.67095 19.7612C7.81965 19.6221 7.08732 19.0815 6.70333 18.3087L4.77507 14.4374C4.64571 14.1826 4.47665 13.95 4.27422 13.7483L0.780809 10.2529C-0.260269 9.20678 -0.260269 7.5154 0.780809 6.4693Z" fill="#8D1111"/>
</svg>
