<svg width="18" height="24" viewBox="0 0 18 24" fill="none" xmlns="http://www.w3.org/2000/svg">
<path fill-rule="evenodd" clip-rule="evenodd" d="M8.99992 0.333705C5.11026 0.30624 1.87937 3.32764 1.6464 7.21041C1.41343 11.0932 4.25988 14.4792 8.12492 14.917V19.9337C8.12492 20.417 8.51667 20.8087 8.99992 20.8087C9.48317 20.8087 9.87492 20.417 9.87492 19.9337V14.917C13.74 14.4792 16.5864 11.0932 16.3534 7.21041C16.1205 3.32764 12.8896 0.30624 8.99992 0.333705ZM8.24158 4.38204C6.89947 4.38202 5.80967 5.46661 5.80325 6.8087C5.80325 7.29195 5.4115 7.6837 4.92825 7.6837C4.445 7.6837 4.05325 7.29195 4.05325 6.8087C4.05968 4.50011 5.93298 2.63203 8.24158 2.63204C8.72483 2.63204 9.11659 3.02379 9.11659 3.50704C9.11659 3.99029 8.72483 4.38204 8.24158 4.38204Z" fill="#8D1111"/>
<path d="M13.4566 16.422C13.6792 16.0014 14.1941 15.8315 14.6233 16.037C16.0558 16.5888 17.0447 17.9134 17.1666 19.4437C17.1666 22.022 13.6666 23.9704 8.99992 23.9704C4.33325 23.9704 0.833252 22.022 0.833252 19.4437C0.976451 17.9352 1.96178 16.638 3.37659 16.0954C3.80829 15.8763 4.33585 16.0487 4.55492 16.4804C4.77399 16.9121 4.60162 17.4396 4.16992 17.6587C3.14325 18.1837 2.55992 18.837 2.55992 19.4437C2.55992 20.7037 5.32492 22.1504 9.01159 22.1504C12.6983 22.1504 15.4516 20.692 15.4516 19.3737C15.4516 18.7554 14.8683 18.1137 13.8416 17.5887C13.4159 17.3704 13.2444 16.8508 13.4566 16.422Z" fill="#8D1111"/>
</svg>
