<svg width="24" height="24" viewBox="0 0 24 24" fill="none" xmlns="http://www.w3.org/2000/svg">
<path fill-rule="evenodd" clip-rule="evenodd" d="M7.41295 15.4513L8.29503 11.3308C8.42345 10.7582 8.7127 10.2342 9.12878 9.82042L17.1884 1.83333C18.0057 1.00076 19.1153 0.519613 20.2817 0.492084C21.1614 0.47948 22.0096 0.818785 22.6379 1.43458C24.0108 3.05673 23.8336 5.47914 22.2392 6.88417L14.1796 14.9438C13.7658 15.3598 13.2418 15.6491 12.6692 15.7775L8.54878 16.6596H8.3192C8.01797 16.6711 7.73027 16.5341 7.5494 16.2929C7.36853 16.0518 7.31753 15.7372 7.41295 15.4513ZM10.4096 11.1133C10.2403 11.2774 10.1227 11.4874 10.0713 11.7175L9.4792 14.5329L12.2946 13.9288C12.5247 13.8773 12.7347 13.7597 12.8988 13.5904L20.9584 5.53083C21.8413 4.82399 22.0165 3.54974 21.3571 2.63083C21.0684 2.35498 20.6808 2.20691 20.2817 2.22C19.5936 2.24763 18.9434 2.54238 18.4692 3.04167L10.4096 11.1133Z" fill="#A6A6A6"/>
<path d="M22.058 10.2071C21.5602 10.2136 21.1582 10.6155 21.1517 11.1133V17.9888C21.1679 18.9606 20.7931 19.8982 20.1116 20.5912C19.43 21.2841 18.4987 21.6743 17.5267 21.6742H6.01128C4.00227 21.6348 2.39246 19.9981 2.38628 17.9888V6.52167C2.41927 4.5099 4.05966 2.8964 6.0717 2.89667H12.9471C13.4476 2.89667 13.8534 2.49093 13.8534 1.99042C13.8534 1.48991 13.4476 1.08417 12.9471 1.08417H6.01128C2.99831 1.08399 0.546476 3.50887 0.513367 6.52167V17.9888C0.513367 21.0252 2.97487 23.4867 6.01128 23.4867H17.4784C20.5101 23.48 22.9642 21.0205 22.9642 17.9888V11.1133C22.9577 10.6155 22.5557 10.2136 22.058 10.2071Z" fill="#A6A6A6"/>
</svg>
