<svg width="29" height="26" viewBox="0 0 29 26" fill="none" xmlns="http://www.w3.org/2000/svg">
<path d="M8.84541 10.6C10.3975 10.6 11.6558 9.48071 11.6558 8.1C11.6558 6.71929 10.3975 5.6 8.84541 5.6C7.29327 5.6 6.03501 6.71929 6.03501 8.1C6.03501 9.48071 7.29327 10.6 8.84541 10.6Z" fill="black"/>
<path fill-rule="evenodd" clip-rule="evenodd" d="M17.4452 0.5H11.4872C5.27863 0.5 0.245605 4.97715 0.245605 10.5V15.8C0.245605 21.3228 5.27863 25.8 11.4872 25.8H17.4452C23.6538 25.8 28.6868 21.3228 28.6868 15.8V10.5C28.6868 7.84784 27.5024 5.3043 25.3942 3.42893C23.286 1.55357 20.4267 0.5 17.4452 0.5ZM11.4872 2.375H17.4452C22.0064 2.38134 25.8631 5.37995 26.4806 9.4H24.3026C18.4383 9.40425 13.0159 12.1728 10.0539 16.675C8.2041 15.3679 5.91017 14.6583 3.54782 14.6625H2.3534V10.5C2.36114 6.01554 6.44594 2.38188 11.4872 2.375ZM3.54782 16.5375H2.39556C2.7008 19.4853 4.78422 22.0522 7.83366 23.2375C7.93438 21.5689 8.35744 19.9283 9.08429 18.3875C7.55045 17.1964 5.58388 16.5393 3.54782 16.5375ZM17.4452 23.925H11.4872C10.9589 23.9231 10.432 23.8771 9.91335 23.7875C10.0888 16.8267 16.4756 11.2618 24.3026 11.25H26.579V15.8C26.5712 20.2845 22.4864 23.9181 17.4452 23.925Z" fill="black"/>
</svg>
