<svg width="22" height="28" viewBox="0 0 22 28" fill="none" xmlns="http://www.w3.org/2000/svg">
<path d="M17.1867 27.3333H4.81336C3.46559 27.2843 2.21012 26.636 1.38982 25.5655C0.569525 24.495 0.270113 23.1141 0.573357 21.8L0.893357 20.28C1.2614 18.2224 3.03019 16.7103 5.12002 16.6667H16.88C18.9699 16.7103 20.7386 18.2224 21.1067 20.28L21.4267 21.8C21.7299 23.1141 21.4305 24.495 20.6102 25.5655C19.7899 26.636 18.5345 27.2843 17.1867 27.3333Z" fill="#595959"/>
<path d="M11.6667 14H10.3334C7.38784 14 5.00002 11.6122 5.00002 8.66668V5.14668C4.99647 3.95742 5.46733 2.81585 6.30826 1.97491C7.1492 1.13398 8.29077 0.663121 9.48002 0.666676H12.52C13.7093 0.663121 14.8509 1.13398 15.6918 1.97491C16.5327 2.81585 17.0036 3.95742 17 5.14668V8.66668C17 10.0812 16.4381 11.4377 15.4379 12.4379C14.4377 13.4381 13.0812 14 11.6667 14Z" fill="#595959"/>
</svg>
