<svg width="42" height="42" viewBox="0 0 42 42" fill="none" xmlns="http://www.w3.org/2000/svg">
<path d="M28 21.7249L22.75 16.4749L22.75 31.5H19.25L19.25 16.4749L14 21.7249L11.5251 19.25L21 9.77513L30.4749 19.25L28 21.7249Z" fill="black"/>
<path fill-rule="evenodd" clip-rule="evenodd" d="M21 1.75C31.6315 1.75 40.25 10.3685 40.25 21C40.25 31.6315 31.6315 40.25 21 40.25C10.3685 40.25 1.75 31.6315 1.75 21C1.75 10.3685 10.3685 1.75 21 1.75ZM36.75 21C36.75 12.3015 29.6985 5.25 21 5.25C12.3015 5.25 5.25 12.3015 5.25 21C5.25 29.6985 12.3015 36.75 21 36.75C29.6985 36.75 36.75 29.6985 36.75 21Z" fill="black"/>
</svg>
